<?xml version="1.0" standalone="no"?>
<!DOCTYPE svg PUBLIC "-//W3C//DTD SVG 1.1//EN" "http://www.w3.org/Graphics/SVG/1.1/DTD/svg11.dtd" >
<svg>
<metadata>
Created by FontForge 20090622 at Sat Apr 19 10:48:02 2014
 By ffonts
Typeface &#194;&#169;NALGames. 2014. All Rights Reserved
</metadata>
<defs>
<font id="Chandstate" horiz-adv-x="1600" >
  <font-face 
    font-family="Chandstate"
    font-weight="400"
    font-stretch="normal"
    units-per-em="2048"
    panose-1="2 0 5 0 0 0 0 0 0 0"
    ascent="1638"
    descent="-410"
    x-height="1400"
    cap-height="1400"
    bbox="0 -200 1400 1500"
    underline-thickness="150"
    underline-position="-142"
    unicode-range="U+001D-U+F002"
  />
<missing-glyph horiz-adv-x="1024" 
d="M100 0v1434h824v-1434h-824zM150 50h724v1334h-724v-1334zM325 1148q31 28 58 43q53 30 112 30q92 0 148 -47.5t56 -127.5q0 -49 -23 -98.5t-87 -129.5q-63 -80 -99 -132t-36 -99q0 -38 24 -133h-32q-35 97 -35 148q0 76 81.5 218t81.5 217q0 57 -33 90t-91 33
q-38 0 -69 -17q-26 -15 -56 -40v45zM389 334l57 58q11 10 20 10q10 0 22 -11l56 -60q9 -11 9 -20q0 -11 -10 -22l-56 -62q-14 -14 -21 -14q-11 0 -20 10l-61 71q-7 9 -7 18q0 10 11 22z" />
    <glyph glyph-name=".notdef" horiz-adv-x="1024" 
d="M100 0v1434h824v-1434h-824zM150 50h724v1334h-724v-1334zM325 1148q31 28 58 43q53 30 112 30q92 0 148 -47.5t56 -127.5q0 -49 -23 -98.5t-87 -129.5q-63 -80 -99 -132t-36 -99q0 -38 24 -133h-32q-35 97 -35 148q0 76 81.5 218t81.5 217q0 57 -33 90t-91 33
q-38 0 -69 -17q-26 -15 -56 -40v45zM389 334l57 58q11 10 20 10q10 0 22 -11l56 -60q9 -11 9 -20q0 -11 -10 -22l-56 -62q-14 -14 -21 -14q-11 0 -20 10l-61 71q-7 9 -7 18q0 10 11 22z" />
    <glyph glyph-name=".null" horiz-adv-x="0" 
 />
    <glyph glyph-name=".null" horiz-adv-x="0" 
 />
    <glyph glyph-name="nonmarkingreturn" horiz-adv-x="508" 
 />
    <glyph glyph-name="space" unicode=" " horiz-adv-x="508" 
 />
    <glyph glyph-name="space" unicode="&#xa0;" horiz-adv-x="508" 
 />
    <glyph glyph-name="exclam" unicode="!" horiz-adv-x="400" 
d="M200 1400v-1000h-200v1000h200zM200 200v-200h-200v200h200z" />
    <glyph glyph-name="quotedbl" unicode="&#x22;" horiz-adv-x="700" 
d="M200 1400v-400h-200v400h200zM500 1400v-400h-200v400h200z" />
    <glyph glyph-name="numbersign" unicode="#" 
d="M400 1200h600v200h200v-200h200v-200h-200v-600h200v-200h-200v-200h-200v200h-600v-200h-200v200h-200v200h200v600h-200v200h200v200h200v-200zM1000 1000h-600v-600h600v600z" />
    <glyph glyph-name="dollar" unicode="$" 
d="M400 600q-166 0 -283 117t-117 283t117 283t283 117v100h200v-100h200v100h200v-100h400v-200h-400v-400q166 0 283 -117t117 -283t-117 -283t-283 -117v-100h-200v100h-200v-100h-200v100h-400v200h400v400zM600 800h200v400h-200v-400zM800 600h-200v-400h200v400z
M1000 200q83 0 141.5 58.5t58.5 141.5t-58.5 141.5t-141.5 58.5v-400zM400 1200q-83 0 -141.5 -58.5t-58.5 -141.5t58.5 -141.5t141.5 -58.5v400z" />
    <glyph glyph-name="percent" unicode="%" 
d="M200 400v-400h-200v400q0 166 117 283t283 117h600q83 0 141.5 58.5t58.5 141.5v400h200v-400q0 -166 -117 -283t-283 -117h-600q-83 0 -141.5 -58.5t-58.5 -141.5zM1170.5 370.5q29.5 -29.5 29.5 -70.5t-29.5 -70.5t-70.5 -29.5t-70.5 29.5t-29.5 70.5t29.5 70.5
t70.5 29.5t70.5 -29.5zM370.5 1170.5q29.5 -29.5 29.5 -70.5t-29.5 -70.5t-70.5 -29.5t-70.5 29.5t-29.5 70.5t29.5 70.5t70.5 29.5t70.5 -29.5z" />
    <glyph glyph-name="ampersand" unicode="&#x26;" 
d="M1100 200h300v-200h-700q-290 0 -495 205t-205 495t205 495t495 205h400v-200h-400q-207 0 -353 -146q-110 -110 -138 -254h691v200h200v-200h300v-200h-300v-400zM900 600h-691q28 -144 138 -253q146 -147 353 -147h200v400z" />
    <glyph glyph-name="quotesingle" unicode="'" horiz-adv-x="400" 
d="M200 1400v-400h-200v400h200z" />
    <glyph glyph-name="parenleft" unicode="(" horiz-adv-x="900" 
d="M700 200v-200q-290 0 -495 205t-205 495t205 495t495 205v-200q-207 0 -353.5 -146.5t-146.5 -353.5t146.5 -353.5t353.5 -146.5z" />
    <glyph glyph-name="parenright" unicode=")" horiz-adv-x="900" 
d="M353.5 346.5q146.5 146.5 146.5 353.5t-146.5 353.5t-353.5 146.5v200q290 0 495 -205t205 -495t-205 -495t-495 -205v200q207 0 353.5 146.5z" />
    <glyph glyph-name="asterisk" unicode="*" 
d="M600 941v459h200v-459l324 325l142 -142l-325 -324h459v-200h-459l325 -324l-142 -142l-324 325v-459h-200v459l-324 -325l-142 142l325 324h-459v200h459l-325 324l142 142z" />
    <glyph glyph-name="plus" unicode="+" 
d="M800 800h600v-200h-600v-600h-200v600h-600v200h600v600h200v-600z" />
    <glyph glyph-name="comma" unicode="," horiz-adv-x="400" 
d="M200 200v-400h-200v400h200z" />
    <glyph glyph-name="hyphen" unicode="-" 
d="M1400 800v-200h-1400v200h1400z" />
    <glyph glyph-name="hyphen" unicode="&#xad;" 
d="M1400 800v-200h-1400v200h1400z" />
    <glyph glyph-name="period" unicode="." horiz-adv-x="400" 
d="M200 200v-200h-200v200h200z" />
    <glyph glyph-name="slash" unicode="/" 
d="M200 400v-400h-200v400q0 166 117 283t283 117h600q83 0 141.5 58.5t58.5 141.5v400h200v-400q0 -166 -117 -283t-283 -117h-600q-83 0 -141.5 -58.5t-58.5 -141.5z" />
    <glyph glyph-name="zero" unicode="0" 
d="M1195 1195q205 -205 205 -495t-205 -495t-495 -205t-495 205t-205 495t205 495t495 205t495 -205zM700 1200q-207 0 -353.5 -146.5t-146.5 -353.5t146.5 -353.5t353.5 -146.5t353.5 146.5t146.5 353.5t-146.5 353.5t-353.5 146.5z" />
    <glyph glyph-name="one" unicode="1" horiz-adv-x="400" 
d="M200 1400v-1400h-200v1400h200z" />
    <glyph glyph-name="two" unicode="2" 
d="M1000 1200h-1000v200h1000q166 0 283 -117t117 -283t-117 -283t-283 -117h-600q-83 0 -141.5 -58.5t-58.5 -141.5t58.5 -141.5t141.5 -58.5h1000v-200h-1000q-166 0 -283 117t-117 283t117 283t283 117h600q83 0 141.5 58.5t58.5 141.5t-58.5 141.5t-141.5 58.5z" />
    <glyph glyph-name="three" unicode="3" 
d="M700 0h-700v200h700q207 0 354 147q109 109 137 253h-1191v200h1191q-28 144 -137 254q-147 146 -354 146h-700v200h700q290 0 495 -205t205 -495t-205 -495t-495 -205z" />
    <glyph glyph-name="four" unicode="4" 
d="M0 600v800h200v-600h1000v600h200v-1400h-200v600h-1200z" />
    <glyph glyph-name="five" unicode="5" 
d="M400 1400h1000v-200h-1000q-83 0 -141.5 -58.5t-58.5 -141.5t58.5 -141.5t141.5 -58.5h600q166 0 283 -117t117 -283t-117 -283t-283 -117h-1000v200h1000q83 0 141.5 58.5t58.5 141.5t-58.5 141.5t-141.5 58.5h-600q-166 0 -283 117t-117 283t117 283t283 117z" />
    <glyph glyph-name="six" unicode="6" 
d="M200 600v-200q0 -83 58.5 -141.5t141.5 -58.5h600q83 0 141.5 58.5t58.5 141.5t-58.5 141.5t-141.5 58.5h-800zM400 1400h1000v-200h-1000q-83 0 -141.5 -58.5t-58.5 -141.5v-200h800q166 0 283 -117t117 -283t-117 -283t-283 -117h-600q-166 0 -283 117t-117 283v600
q0 166 117 283t283 117z" />
    <glyph glyph-name="seven" unicode="7" 
d="M700 1200h-700v200h700q290 0 495 -205t205 -495v-700h-200v700q0 207 -146.5 353.5t-353.5 146.5z" />
    <glyph glyph-name="eight" unicode="8" 
d="M1000 600h-600q-83 0 -141.5 -58.5t-58.5 -141.5t58.5 -141.5t141.5 -58.5h600q83 0 141.5 58.5t58.5 141.5t-58.5 141.5t-141.5 58.5zM1000 1400q166 0 283 -117t117 -283t-117 -283q-9 -9 -18 -17q9 -8 18 -17q117 -117 117 -283t-117 -283t-283 -117h-600
q-166 0 -283 117t-117 283t117 283q9 9 18 17q-9 8 -18 17q-117 117 -117 283t117 283t283 117h600zM1000 800q83 0 141.5 58.5t58.5 141.5t-58.5 141.5t-141.5 58.5h-600q-83 0 -141.5 -58.5t-58.5 -141.5t58.5 -141.5t141.5 -58.5h600z" />
    <glyph glyph-name="nine" unicode="9" 
d="M1200 800v200q0 83 -58.5 141.5t-141.5 58.5h-600q-83 0 -141.5 -58.5t-58.5 -141.5t58.5 -141.5t141.5 -58.5h800zM1000 0h-1000v200h1000q83 0 141.5 58.5t58.5 141.5v200h-800q-166 0 -283 117t-117 283t117 283t283 117h600q166 0 283 -117t117 -283v-600
q0 -166 -117 -283t-283 -117z" />
    <glyph glyph-name="colon" unicode=":" horiz-adv-x="400" 
d="M200 400v-200h-200v200h200zM200 1200v-200h-200v200h200z" />
    <glyph glyph-name="semicolon" unicode=";" horiz-adv-x="400" 
d="M200 400v-400h-200v400h200zM200 1200v-200h-200v200h200z" />
    <glyph glyph-name="semicolon" unicode="&#x37e;" horiz-adv-x="400" 
d="M200 400v-400h-200v400h200zM200 1200v-200h-200v200h200z" />
    <glyph glyph-name="less" unicode="&#x3c;" 
d="M1200 1400h200v-200h-200q-207 0 -578.5 -146.5t-421.5 -353.5q50 -207 421.5 -353.5t578.5 -146.5h200v-200h-200q-290 0 -745 205t-455 495t455 495t745 205z" />
    <glyph glyph-name="equal" unicode="=" 
d="M1400 1200v-200h-1400v200h1400zM1400 400v-200h-1400v200h1400z" />
    <glyph glyph-name="greater" unicode="&#x3e;" 
d="M945 1195q455 -205 455 -495t-455 -495t-745 -205h-200v200h200q207 0 578.5 146.5t421.5 353.5q-50 207 -421.5 353.5t-578.5 146.5h-200v200h200q290 0 745 -205z" />
    <glyph glyph-name="question" unicode="?" 
d="M0 400q0 166 117 283t283 117h600q83 0 141.5 58.5t58.5 141.5t-58.5 141.5t-141.5 58.5h-1000v200h1000q166 0 283 -117t117 -283t-117 -283t-283 -117h-600q-83 0 -141.5 -58.5t-58.5 -141.5h-200zM200 200v-200h-200v200h200z" />
    <glyph glyph-name="at" unicode="@" 
d="M1195 1195q205 -205 205 -495t-205 -495t-495 -205t-495 205t-205 495t205 495t495 205t495 -205zM700 1200q-207 0 -353.5 -146.5t-146.5 -353.5t146.5 -353.5t353.5 -146.5t353.5 146.5t146.5 353.5t-146.5 353.5t-353.5 146.5zM912 912q88 -88 88 -212t-88 -212
t-212 -88t-212 88t-88 212t88 212t212 88t212 -88zM700 800q-41 0 -70.5 -29.5t-29.5 -70.5t29.5 -70.5t70.5 -29.5t70.5 29.5t29.5 70.5t-29.5 70.5t-70.5 29.5z" />
    <glyph glyph-name="A" unicode="A" 
d="M1400 700v-700h-200v700q0 207 -146.5 353.5t-353.5 146.5t-353.5 -146.5t-146.5 -353.5v-200h800v-200h-800v-300h-200v700q0 290 205 495t495 205t495 -205t205 -495z" />
    <glyph glyph-name="B" unicode="B" 
d="M1000 1400q166 0 283 -117t117 -283t-117 -283q-9 -9 -18 -17q9 -8 18 -17q117 -117 117 -283t-117 -283t-283 -117h-1000v200h1000q83 0 141.5 58.5t58.5 141.5t-58.5 141.5t-141.5 58.5h-800v-200h-200v1000h1000zM1000 800q83 0 141.5 58.5t58.5 141.5t-58.5 141.5
t-141.5 58.5h-800v-400h800z" />
    <glyph glyph-name="C" unicode="C" 
d="M700 200h700v-200h-700q-290 0 -495 205t-205 495t205 495t495 205h700v-200h-700q-207 0 -353.5 -146.5t-146.5 -353.5t146.5 -353.5t353.5 -146.5z" />
    <glyph glyph-name="D" unicode="D" 
d="M700 0h-700v200h700q207 0 353.5 146.5t146.5 353.5t-146.5 353.5t-353.5 146.5h-500v-800h-200v1000h700q290 0 495 -205t205 -495t-205 -495t-495 -205z" />
    <glyph glyph-name="E" unicode="E" 
d="M700 200h700v-200h-700q-290 0 -495 205t-205 495t205 495t495 205h700v-200h-700q-207 0 -353 -146q-110 -110 -138 -254h1191v-200h-1191q28 -144 138 -253q146 -147 353 -147z" />
    <glyph glyph-name="F" unicode="F" 
d="M700 1400h700v-200h-700q-207 0 -353 -146q-110 -110 -138 -254h1191v-200h-1200v-600h-200v700q0 290 205 495t495 205z" />
    <glyph glyph-name="G" unicode="G" 
d="M700 1400h700v-200h-700q-207 0 -353.5 -146.5t-146.5 -353.5t146.5 -353.5t353.5 -146.5h500v400h-500v200h700v-800h-700q-290 0 -495 205t-205 495t205 495t495 205z" />
    <glyph glyph-name="H" unicode="H" 
d="M200 600v-600h-200v1400h200v-600h1000v600h200v-1400h-200v600h-1000z" />
    <glyph glyph-name="I" unicode="I" horiz-adv-x="400" 
d="M200 1400v-1400h-200v1400h200z" />
    <glyph glyph-name="J" unicode="J" 
d="M700 0h-700v200h700q207 0 353.5 146.5t146.5 353.5v700h200v-700q0 -290 -205 -495t-495 -205z" />
    <glyph glyph-name="K" unicode="K" 
d="M200 600v-600h-200v1400h200v-600h800q83 0 141.5 58.5t58.5 141.5v400h200v-400q0 -166 -117 -283q-75 -75 -171 -102q27 -23 54 -49q234 -235 234 -566h-200q0 249 -175.5 424.5t-424.5 175.5h-400z" />
    <glyph glyph-name="L" unicode="L" 
d="M700 200h700v-200h-700q-290 0 -495 205t-205 495v700h200v-700q0 -207 146.5 -353.5t353.5 -146.5z" />
    <glyph glyph-name="M" unicode="M" 
d="M200 700v-700h-200v700q0 290 205 495t495 205t495 -205t205 -495v-700h-200v700q0 207 -146 354q-110 109 -254 137v-1191h-200v1191q-144 -28 -253 -137q-147 -147 -147 -354z" />
    <glyph glyph-name="N" unicode="N" 
d="M200 700v-700h-200v700q0 290 205 495t495 205t495 -205t205 -495v-700h-200v700q0 207 -146.5 353.5t-353.5 146.5t-353.5 -146.5t-146.5 -353.5z" />
    <glyph glyph-name="O" unicode="O" 
d="M1195 1195q205 -205 205 -495t-205 -495t-495 -205t-495 205t-205 495t205 495t495 205t495 -205zM700 1200q-207 0 -353.5 -146.5t-146.5 -353.5t146.5 -353.5t353.5 -146.5t353.5 146.5t146.5 353.5t-146.5 353.5t-353.5 146.5z" />
    <glyph glyph-name="P" unicode="P" 
d="M1000 1200h-1000v200h1000q166 0 283 -117t117 -283t-117 -283t-283 -117h-800v-600h-200v1000h200v-200h800q83 0 141.5 58.5t58.5 141.5t-58.5 141.5t-141.5 58.5z" />
    <glyph glyph-name="Q" unicode="Q" 
d="M800 209q144 28 254 138q146 146 146 353t-146.5 353.5t-353.5 146.5t-353.5 -146.5t-146.5 -353.5t147 -353q109 -110 253 -138v591h200v-591zM1400 700q0 -290 -205 -495t-495 -205t-495 205t-205 495t205 495t495 205t495 -205t205 -495z" />
    <glyph glyph-name="R" unicode="R" 
d="M1000 1200h-1000v200h1000q166 0 283 -117t117 -283t-117 -283q-75 -75 -171 -102q27 -23 54 -49q234 -235 234 -566h-200q0 249 -175.5 424.5t-424.5 175.5h-400v-600h-200v1000h200v-200h800q83 0 141.5 58.5t58.5 141.5t-58.5 141.5t-141.5 58.5z" />
    <glyph glyph-name="S" unicode="S" 
d="M400 1400h1000v-200h-1000q-83 0 -141.5 -58.5t-58.5 -141.5t58.5 -141.5t141.5 -58.5h600q166 0 283 -117t117 -283t-117 -283t-283 -117h-1000v200h1000q83 0 141.5 58.5t58.5 141.5t-58.5 141.5t-141.5 58.5h-600q-166 0 -283 117t-117 283t117 283t283 117z" />
    <glyph glyph-name="T" unicode="T" 
d="M800 1200v-1200h-200v1200h-600v200h1400v-200h-600z" />
    <glyph glyph-name="U" unicode="U" 
d="M0 700v700h200v-700q0 -207 146.5 -353.5t353.5 -146.5t353.5 146.5t146.5 353.5v700h200v-700q0 -290 -205 -495t-495 -205t-495 205t-205 495z" />
    <glyph glyph-name="V" unicode="V" 
d="M0 1200v200h200v-200q0 -207 146.5 -578.5t353.5 -421.5q207 50 353.5 421.5t146.5 578.5v200h200v-200q0 -290 -205 -745t-495 -455t-495 455t-205 745z" />
    <glyph glyph-name="W" unicode="W" 
d="M0 700v700h200v-700q0 -207 147 -353q109 -110 253 -138v1191h200v-1191q144 28 254 138q146 146 146 353v700h200v-700q0 -290 -205 -495t-495 -205t-495 205t-205 495z" />
    <glyph glyph-name="X" unicode="X" 
d="M200 100v-100h-200v100q0 290 205 495q62 62 131 105q-69 43 -131 105q-205 205 -205 495v100h200v-100q0 -207 146.5 -353.5t353.5 -146.5t353.5 146.5t146.5 353.5v100h200v-100q0 -290 -205 -495q-62 -62 -131 -105q69 -43 131 -105q205 -205 205 -495v-100h-200v100
q0 207 -146.5 353.5t-353.5 146.5t-353.5 -146.5t-146.5 -353.5z" />
    <glyph glyph-name="Y" unicode="Y" 
d="M0 1300v100h200v-100q0 -207 146.5 -353.5t353.5 -146.5t353.5 146.5t146.5 353.5v100h200v-100q0 -290 -205 -495q-169 -169 -395 -199v-606h-200v606q-226 30 -395 199q-205 205 -205 495z" />
    <glyph glyph-name="Z" unicode="Z" 
d="M1000 1200h-1000v200h1000q166 0 283 -117t117 -283t-117 -283t-283 -117h-600q-83 0 -141.5 -58.5t-58.5 -141.5t58.5 -141.5t141.5 -58.5h1000v-200h-1000q-166 0 -283 117t-117 283t117 283t283 117h600q83 0 141.5 58.5t58.5 141.5t-58.5 141.5t-141.5 58.5z" />
    <glyph glyph-name="bracketleft" unicode="[" horiz-adv-x="900" 
d="M0 1400h700v-200h-500v-1000h500v-200h-700v1400z" />
    <glyph glyph-name="backslash" unicode="\" 
d="M1141.5 541.5q-58.5 58.5 -141.5 58.5h-600q-166 0 -283 117t-117 283v400h200v-400q0 -83 58.5 -141.5t141.5 -58.5h600q166 0 283 -117t117 -283v-400h-200v400q0 83 -58.5 141.5z" />
    <glyph glyph-name="bracketright" unicode="]" horiz-adv-x="900" 
d="M700 0h-700v200h500v1000h-500v200h700v-1400z" />
    <glyph glyph-name="underscore" unicode="_" 
d="M0 200h1400v-200h-1400v200z" />
    <glyph glyph-name="grave" unicode="`" horiz-adv-x="400" 
d="M200 1400v-400h-200v400h200z" />
    <glyph glyph-name="a" unicode="a" 
d="M1400 700v-700h-200v700q0 207 -146.5 353.5t-353.5 146.5t-353.5 -146.5t-146.5 -353.5v-200h800v-200h-800v-300h-200v700q0 290 205 495t495 205t495 -205t205 -495z" />
    <glyph glyph-name="b" unicode="b" 
d="M1000 1400q166 0 283 -117t117 -283t-117 -283q-9 -9 -18 -17q9 -8 18 -17q117 -117 117 -283t-117 -283t-283 -117h-1000v200h1000q83 0 141.5 58.5t58.5 141.5t-58.5 141.5t-141.5 58.5h-800v-200h-200v1000h1000zM1000 800q83 0 141.5 58.5t58.5 141.5t-58.5 141.5
t-141.5 58.5h-800v-400h800z" />
    <glyph glyph-name="c" unicode="c" 
d="M700 200h700v-200h-700q-290 0 -495 205t-205 495t205 495t495 205h700v-200h-700q-207 0 -353.5 -146.5t-146.5 -353.5t146.5 -353.5t353.5 -146.5z" />
    <glyph glyph-name="d" unicode="d" 
d="M700 0h-700v200h700q207 0 353.5 146.5t146.5 353.5t-146.5 353.5t-353.5 146.5h-500v-800h-200v1000h700q290 0 495 -205t205 -495t-205 -495t-495 -205z" />
    <glyph glyph-name="e" unicode="e" 
d="M700 200h700v-200h-700q-290 0 -495 205t-205 495t205 495t495 205h700v-200h-700q-207 0 -353 -146q-110 -110 -138 -254h1191v-200h-1191q28 -144 138 -253q146 -147 353 -147z" />
    <glyph glyph-name="f" unicode="f" 
d="M700 1400h700v-200h-700q-207 0 -353 -146q-110 -110 -138 -254h1191v-200h-1200v-600h-200v700q0 290 205 495t495 205z" />
    <glyph glyph-name="g" unicode="g" 
d="M700 1400h700v-200h-700q-207 0 -353.5 -146.5t-146.5 -353.5t146.5 -353.5t353.5 -146.5h500v400h-500v200h700v-800h-700q-290 0 -495 205t-205 495t205 495t495 205z" />
    <glyph glyph-name="h" unicode="h" 
d="M200 600v-600h-200v1400h200v-600h1000v600h200v-1400h-200v600h-1000z" />
    <glyph glyph-name="i" unicode="i" horiz-adv-x="400" 
d="M200 1400v-1400h-200v1400h200z" />
    <glyph glyph-name="j" unicode="j" 
d="M700 0h-700v200h700q207 0 353.5 146.5t146.5 353.5v700h200v-700q0 -290 -205 -495t-495 -205z" />
    <glyph glyph-name="k" unicode="k" 
d="M200 600v-600h-200v1400h200v-600h800q83 0 141.5 58.5t58.5 141.5v400h200v-400q0 -166 -117 -283q-75 -75 -171 -102q27 -23 54 -49q234 -235 234 -566h-200q0 249 -175.5 424.5t-424.5 175.5h-400z" />
    <glyph glyph-name="l" unicode="l" 
d="M700 200h700v-200h-700q-290 0 -495 205t-205 495v700h200v-700q0 -207 146.5 -353.5t353.5 -146.5z" />
    <glyph glyph-name="m" unicode="m" 
d="M200 700v-700h-200v700q0 290 205 495t495 205t495 -205t205 -495v-700h-200v700q0 207 -146 354q-110 109 -254 137v-1191h-200v1191q-144 -28 -253 -137q-147 -147 -147 -354z" />
    <glyph glyph-name="n" unicode="n" 
d="M200 700v-700h-200v700q0 290 205 495t495 205t495 -205t205 -495v-700h-200v700q0 207 -146.5 353.5t-353.5 146.5t-353.5 -146.5t-146.5 -353.5z" />
    <glyph glyph-name="o" unicode="o" 
d="M1195 1195q205 -205 205 -495t-205 -495t-495 -205t-495 205t-205 495t205 495t495 205t495 -205zM700 1200q-207 0 -353.5 -146.5t-146.5 -353.5t146.5 -353.5t353.5 -146.5t353.5 146.5t146.5 353.5t-146.5 353.5t-353.5 146.5z" />
    <glyph glyph-name="p" unicode="p" 
d="M1000 1200h-1000v200h1000q166 0 283 -117t117 -283t-117 -283t-283 -117h-800v-600h-200v1000h200v-200h800q83 0 141.5 58.5t58.5 141.5t-58.5 141.5t-141.5 58.5z" />
    <glyph glyph-name="q" unicode="q" 
d="M800 209q144 28 254 138q146 146 146 353t-146.5 353.5t-353.5 146.5t-353.5 -146.5t-146.5 -353.5t147 -353q109 -110 253 -138v591h200v-591zM1400 700q0 -290 -205 -495t-495 -205t-495 205t-205 495t205 495t495 205t495 -205t205 -495z" />
    <glyph glyph-name="r" unicode="r" 
d="M1000 1200h-1000v200h1000q166 0 283 -117t117 -283t-117 -283q-75 -75 -171 -102q27 -23 54 -49q234 -235 234 -566h-200q0 249 -175.5 424.5t-424.5 175.5h-400v-600h-200v1000h200v-200h800q83 0 141.5 58.5t58.5 141.5t-58.5 141.5t-141.5 58.5z" />
    <glyph glyph-name="s" unicode="s" 
d="M400 1400h1000v-200h-1000q-83 0 -141.5 -58.5t-58.5 -141.5t58.5 -141.5t141.5 -58.5h600q166 0 283 -117t117 -283t-117 -283t-283 -117h-1000v200h1000q83 0 141.5 58.5t58.5 141.5t-58.5 141.5t-141.5 58.5h-600q-166 0 -283 117t-117 283t117 283t283 117z" />
    <glyph glyph-name="t" unicode="t" 
d="M800 1200v-1200h-200v1200h-600v200h1400v-200h-600z" />
    <glyph glyph-name="u" unicode="u" 
d="M0 700v700h200v-700q0 -207 146.5 -353.5t353.5 -146.5t353.5 146.5t146.5 353.5v700h200v-700q0 -290 -205 -495t-495 -205t-495 205t-205 495z" />
    <glyph glyph-name="v" unicode="v" 
d="M0 1200v200h200v-200q0 -207 146.5 -578.5t353.5 -421.5q207 50 353.5 421.5t146.5 578.5v200h200v-200q0 -290 -205 -745t-495 -455t-495 455t-205 745z" />
    <glyph glyph-name="w" unicode="w" 
d="M0 700v700h200v-700q0 -207 147 -353q109 -110 253 -138v1191h200v-1191q144 28 254 138q146 146 146 353v700h200v-700q0 -290 -205 -495t-495 -205t-495 205t-205 495z" />
    <glyph glyph-name="x" unicode="x" 
d="M200 100v-100h-200v100q0 290 205 495q62 62 131 105q-69 43 -131 105q-205 205 -205 495v100h200v-100q0 -207 146.5 -353.5t353.5 -146.5t353.5 146.5t146.5 353.5v100h200v-100q0 -290 -205 -495q-62 -62 -131 -105q69 -43 131 -105q205 -205 205 -495v-100h-200v100
q0 207 -146.5 353.5t-353.5 146.5t-353.5 -146.5t-146.5 -353.5z" />
    <glyph glyph-name="y" unicode="y" 
d="M0 1300v100h200v-100q0 -207 146.5 -353.5t353.5 -146.5t353.5 146.5t146.5 353.5v100h200v-100q0 -290 -205 -495q-169 -169 -395 -199v-606h-200v606q-226 30 -395 199q-205 205 -205 495z" />
    <glyph glyph-name="z" unicode="z" 
d="M1000 1200h-1000v200h1000q166 0 283 -117t117 -283t-117 -283t-283 -117h-600q-83 0 -141.5 -58.5t-58.5 -141.5t58.5 -141.5t141.5 -58.5h1000v-200h-1000q-166 0 -283 117t-117 283t117 283t283 117h600q83 0 141.5 58.5t58.5 141.5t-58.5 141.5t-141.5 58.5z" />
    <glyph glyph-name="braceleft" unicode="{" horiz-adv-x="900" 
d="M700 200v-200q-290 0 -495 205t-205 495t205 495t495 205v-200q-207 0 -353.5 -146.5t-146.5 -353.5t146.5 -353.5t353.5 -146.5z" />
    <glyph glyph-name="bar" unicode="|" horiz-adv-x="400" 
d="M200 1400v-1400h-200v1400h200z" />
    <glyph glyph-name="braceright" unicode="}" horiz-adv-x="900" 
d="M353.5 346.5q146.5 146.5 146.5 353.5t-146.5 353.5t-353.5 146.5v200q290 0 495 -205t205 -495t-205 -495t-495 -205v200q207 0 353.5 146.5z" />
    <glyph glyph-name="uniF001" unicode="&#xf001;" horiz-adv-x="1073" 
 />
    <glyph glyph-name="uniF001" unicode="&#xfb01;" horiz-adv-x="1073" 
 />
    <glyph glyph-name="uniF002" unicode="&#xf002;" horiz-adv-x="1081" 
 />
    <glyph glyph-name="uniF002" unicode="&#xfb02;" horiz-adv-x="1081" 
 />
  </font>
</defs>
</svg>
